<svg width="104" height="53" viewBox="0 0 104 53" fill="none" xmlns="http://www.w3.org/2000/svg">
<g id="Group 2204">
<g id="Group 2202" filter="url(#filter0_d_3_40)">
<path id="Vector 4" d="M41.902 31.9224C42.2161 44.4863 33.1334 47.8891 28.5528 48.0199L19.5224 46.0568L2.24701 30.3519V26.4257L4.21013 24.0699H7.74374L12.4552 27.2109V11.8986L12.8478 8.75759L14.0257 6.79447H17.1667L19.9151 7.97235V4.83136L20.3077 2.47562L23.0561 1.69037L26.1971 2.47562L27.3749 4.83136L29.338 4.04611H32.8716L34.4421 6.79447V13.0765L34.8348 12.2912L36.7979 11.8986L38.3684 11.1133L40.3315 11.8986L41.5094 13.0765C41.5094 14.1234 41.5879 19.3584 41.902 31.9224Z" fill="white"/>
<path id="hand (Stroke)" fill-rule="evenodd" clip-rule="evenodd" d="M18.7034 5.38074C18.7034 2.69193 20.8862 0.512207 23.5787 0.512207C25.7053 0.512207 27.5139 1.87192 28.1802 3.76825C28.9555 3.24923 29.8881 2.94647 30.8916 2.94647C33.5841 2.94647 35.7669 5.12619 35.7669 7.815V10.9006C36.484 10.4864 37.3165 10.2493 38.2045 10.2493C40.8971 10.2493 43.0798 12.429 43.0798 15.1178L43.0798 34.5919C43.0798 42.6584 36.5316 49.1975 28.454 49.1975H26.0163C21.5556 49.1975 17.56 47.2006 14.8809 44.0616C14.8137 44.0033 14.7474 43.9434 14.682 43.882L2.48166 32.4264C0.28411 30.363 0.0622972 26.9103 1.98468 24.5858C3.86743 22.3092 7.1713 21.8943 9.55479 23.6529L11.3905 25.0073V10.2493C11.3905 7.56046 13.5732 5.38074 16.2658 5.38074C17.1538 5.38074 17.9863 5.61782 18.7034 6.03206V5.38074ZM21.1411 5.38074C21.1411 4.03633 22.2324 2.94647 23.5787 2.94647C24.925 2.94647 26.0163 4.03633 26.0163 5.38074V22.4206H28.454V7.81501C28.454 7.8134 28.454 7.8118 28.454 7.8102C28.4566 6.468 29.5469 5.38074 30.8916 5.38074C32.2379 5.38074 33.3292 6.4706 33.3292 7.815V22.4206H35.7669V15.1178C35.7669 13.7734 36.8582 12.6835 38.2045 12.6835C39.5508 12.6835 40.6422 13.7734 40.6422 15.1178L40.6422 34.5919C40.6422 41.314 35.1853 46.7633 28.454 46.7633H26.0163C22.23 46.7633 18.8469 45.0391 16.6114 42.3341C16.5232 42.2633 16.4366 42.1882 16.3518 42.1085L4.15146 30.653C2.88884 29.4674 2.76175 27.4689 3.86421 26.1359C4.92581 24.8522 6.76894 24.624 8.10625 25.6107L13.8281 29.8325V10.2493C13.8281 8.90487 14.9195 7.815 16.2658 7.815C17.6121 7.815 18.7034 8.90486 18.7034 10.2493V22.4206H21.1411V5.38074Z" fill="black"/>
</g>
<rect id="Rectangle 555" x="56.7439" y="18.3162" width="46.7346" height="2.22546" fill="black"/>
<rect id="Rectangle 556" x="56.7439" y="27.9595" width="27.4473" height="2.22546" fill="black"/>
<rect id="Rectangle 557" x="56.7439" y="37.6032" width="42.2837" height="2.22546" fill="black"/>
</g>
<defs>
<filter id="filter0_d_3_40" x="0.676453" y="0.512207" width="45.3706" height="51.6526" filterUnits="userSpaceOnUse" color-interpolation-filters="sRGB">
<feFlood flood-opacity="0" result="BackgroundImageFix"/>
<feColorMatrix in="SourceAlpha" type="matrix" values="0 0 0 0 0 0 0 0 0 0 0 0 0 0 0 0 0 0 127 0" result="hardAlpha"/>
<feOffset dx="2.96728" dy="2.96728"/>
<feComposite in2="hardAlpha" operator="out"/>
<feColorMatrix type="matrix" values="0 0 0 0 0 0 0 0 0 0 0 0 0 0 0 0 0 0 0.25 0"/>
<feBlend mode="normal" in2="BackgroundImageFix" result="effect1_dropShadow_3_40"/>
<feBlend mode="normal" in="SourceGraphic" in2="effect1_dropShadow_3_40" result="shape"/>
</filter>
</defs>
</svg>
