<svg width="17" height="19" viewBox="0 0 17 19" fill="none" xmlns="http://www.w3.org/2000/svg">
<g id="Icon" clip-path="url(#clip0_3_55)">
<path id="Vector" fill-rule="evenodd" clip-rule="evenodd" d="M6.10132 4.16206H7.35942V2.43217C7.35942 1.82451 7.85259 1.33134 8.46025 1.33134C9.06791 1.33134 9.56109 1.82451 9.56109 2.43217V4.16206H14.7507V17.6866H2.16976V4.16206H6.10132ZM10.8192 2.90396H16.0088V18.9447H0.911667V2.90396H6.10132V2.43217C6.10132 1.12879 7.15812 0.0732422 8.46025 0.0732422C9.76364 0.0732422 10.8192 1.13004 10.8192 2.43217V2.90396ZM8.46025 7.3073C7.5041 7.3073 6.73037 8.08229 6.73037 9.03718C6.73037 9.99334 7.50535 10.7671 8.46025 10.7671C9.4164 10.7671 10.1901 9.99208 10.1901 9.03718C10.1901 8.08103 9.41515 7.3073 8.46025 7.3073ZM5.47227 9.03718C5.47227 7.38656 6.80963 6.0492 8.46025 6.0492C10.1109 6.0492 11.4482 7.38656 11.4482 9.03718C11.4482 10.1871 10.7991 11.186 9.84667 11.6855C11.067 12.2189 11.92 13.438 11.92 14.8559V15.1704H10.6619V14.8559C10.6619 13.6406 9.67557 12.6542 8.46025 12.6542C7.24493 12.6542 6.25858 13.6406 6.25858 14.8559V15.1704H5.00048V14.8559C5.00048 13.438 5.85347 12.2189 7.07383 11.6855C6.12145 11.186 5.47227 10.1883 5.47227 9.03718Z" fill="white"/>
</g>
<defs>
<clipPath id="clip0_3_55">
<rect width="15.0972" height="18.8715" fill="white" transform="translate(0.911659 0.0736694)"/>
</clipPath>
</defs>
</svg>
